<?xml version="1.0" encoding="utf-8"?>
<!-- Generator: Adobe Illustrator 28.2.0, SVG Export Plug-In . SVG Version: 6.00 Build 0)  -->
<svg version="1.1" id="Group_23" xmlns="http://www.w3.org/2000/svg" xmlns:xlink="http://www.w3.org/1999/xlink" x="0px" y="0px"
	 viewBox="0 0 209.3 57.9" style="enable-background:new 0 0 209.3 57.9;" xml:space="preserve">
<style type="text/css">
	.st0{fill:#FFFFFF;}
	.st1{fill:#443322;}
	
		.st2{clip-path:url(#SVGID_00000111902949116342554330000009943577251209490575_);fill:none;stroke:#FFFFFF;stroke-width:0.5061;stroke-miterlimit:10;}
	.st3{fill:#231815;}
	.st4{fill:#443322;stroke:#FFFFFF;stroke-width:0.9568;stroke-linecap:round;stroke-linejoin:round;stroke-miterlimit:10;}
	.st5{fill:none;stroke:#FFFFFF;stroke-width:0.9568;stroke-linecap:round;stroke-linejoin:round;stroke-miterlimit:10;}
	.st6{font-family:'AcierBATText-Solid';}
	.st7{font-size:30.9159px;}
</style>
<g>
	<circle class="st0" cx="29.2" cy="29.2" r="28.7"/>
	<path class="st1" d="M57.9,29.2C57.9,13.4,45,0.5,29.2,0.5C13.3,0.5,0.5,13.4,0.5,29.2c0,3,0.5,5.9,1.3,8.6h54.8
		C57.4,35.1,57.9,32.2,57.9,29.2z"/>
	<g>
		<path class="st1" d="M14.4,46.4c-0.5,0.2-1,0.3-1.8,0.3c-0.6,0-1.2-0.1-1.7-0.3c-0.5-0.2-0.9-0.4-1.3-0.8
			c-0.4-0.3-0.6-0.7-0.8-1.2C8.7,44,8.6,43.5,8.6,43c0-0.5,0.1-1,0.3-1.5c0.2-0.5,0.5-0.8,0.8-1.2c0.4-0.3,0.8-0.6,1.3-0.7
			c0.5-0.2,1-0.3,1.7-0.3c0.7,0,1.3,0.1,1.7,0.2c0.5,0.2,0.8,0.4,1.1,0.6l-1.3,1.1c-0.2-0.2-0.4-0.3-0.6-0.4
			c-0.2-0.1-0.5-0.1-0.8-0.1c-0.3,0-0.6,0.1-0.8,0.2c-0.2,0.1-0.4,0.3-0.6,0.5c-0.2,0.2-0.3,0.4-0.4,0.7c-0.1,0.3-0.1,0.5-0.1,0.8
			c0,0.3,0,0.6,0.1,0.8c0.1,0.3,0.2,0.5,0.4,0.7c0.2,0.2,0.4,0.3,0.6,0.5c0.2,0.1,0.5,0.2,0.8,0.2c0.3,0,0.6-0.1,0.8-0.2
			c0.2-0.1,0.4-0.2,0.6-0.4l1.3,1.1C15.2,46,14.8,46.2,14.4,46.4z"/>
		<path class="st1" d="M23.9,43c0,0.5-0.1,1.1-0.3,1.5c-0.2,0.5-0.5,0.8-0.8,1.2c-0.3,0.3-0.8,0.6-1.3,0.7c-0.5,0.2-1.1,0.3-1.7,0.3
			c-0.6,0-1.2-0.1-1.7-0.3c-0.5-0.2-0.9-0.4-1.3-0.7c-0.3-0.3-0.6-0.7-0.8-1.2c-0.2-0.5-0.3-1-0.3-1.5c0-0.5,0.1-1,0.3-1.5
			c0.2-0.4,0.4-0.8,0.8-1.1c0.3-0.3,0.8-0.6,1.3-0.7c0.5-0.2,1.1-0.3,1.7-0.3c0.6,0,1.2,0.1,1.7,0.3c0.5,0.2,0.9,0.4,1.3,0.7
			c0.3,0.3,0.6,0.7,0.8,1.1S23.9,42.4,23.9,43z M21.5,43c0-0.3,0-0.6-0.1-0.8c-0.1-0.3-0.2-0.5-0.3-0.7c-0.1-0.2-0.3-0.3-0.5-0.4
			c-0.2-0.1-0.4-0.2-0.7-0.2s-0.5,0.1-0.7,0.2c-0.2,0.1-0.4,0.3-0.5,0.4c-0.1,0.2-0.2,0.4-0.3,0.7c-0.1,0.3-0.1,0.5-0.1,0.8
			c0,0.3,0,0.6,0.1,0.8c0.1,0.3,0.2,0.5,0.3,0.7c0.1,0.2,0.3,0.3,0.5,0.5c0.2,0.1,0.4,0.2,0.7,0.2s0.5-0.1,0.7-0.2
			c0.2-0.1,0.4-0.3,0.5-0.5c0.1-0.2,0.2-0.4,0.3-0.7C21.5,43.5,21.5,43.3,21.5,43z"/>
		<path class="st1" d="M27.7,40.9v1.4h2.5v1.3h-2.5v2.8h-2.4v-6.9h5.1v1.4H27.7z"/>
		<path class="st1" d="M34.1,40.9v1.4h2.5v1.3h-2.5v2.8h-2.4v-6.9h5.1v1.4H34.1z"/>
		<path class="st1" d="M38.1,46.4v-6.9h5v1.4h-2.8v1.4h2.6v1.3h-2.6V45h3v1.4H38.1z"/>
		<path class="st1" d="M44.6,46.4v-6.9h5v1.4h-2.8v1.4h2.6v1.3h-2.6V45h3v1.4H44.6z"/>
	</g>
	<g>
		<g>
			<g>
				<polygon class="st0" points="42.3,55.9 42.3,51.6 49.2,51.6 48,53.7 49.2,55.9 				"/>
				<path class="st1" d="M48.6,52l-0.8,1.4l-0.2,0.4l0.2,0.4l0.8,1.4h-5.9V52H48.6 M49.9,51.3H42v4.9h7.9l-1.5-2.5L49.9,51.3
					L49.9,51.3z"/>
			</g>
			<g>
				<polygon class="st1" points="42.3,51.5 45.2,49.1 45.2,53.1 42.3,55.5 				"/>
				<path class="st1" d="M44.9,49.8v3.1l-2.2,1.8v-3.1L44.9,49.8 M45.6,48.3l-3.6,3v4.9l3.6-3V48.3L45.6,48.3z"/>
			</g>
			<g>
				<polygon class="st0" points="9.1,55.9 10.4,53.7 9.1,51.6 16,51.6 16,55.9 				"/>
				<path class="st1" d="M15.7,52v3.5H9.8l0.8-1.4l0.2-0.4l-0.2-0.4L9.8,52H15.7 M16.4,51.3H8.5l1.5,2.5l-1.5,2.5h7.9V51.3
					L16.4,51.3z"/>
			</g>
			<g>
				<polygon class="st1" points="13.1,53.1 13.1,49.1 16,51.5 16,55.5 				"/>
				<path class="st1" d="M13.5,49.8l2.2,1.8v3.1l-2.2-1.8V49.8 M12.8,48.3v4.9l3.6,3v-4.9L12.8,48.3L12.8,48.3z"/>
			</g>
			<g>
				<rect x="13.1" y="48.7" class="st0" width="32.1" height="4.2"/>
				<path class="st1" d="M44.9,49v3.5H13.5V49H44.9 M45.6,48.3H12.8v4.9h32.8V48.3L45.6,48.3z"/>
			</g>
			<g>
				<path class="st1" d="M22.9,51.4c0,0.1,0,0.2-0.1,0.3c-0.1,0.1-0.1,0.2-0.3,0.2C22.5,52,22.4,52,22.2,52c-0.1,0-0.3,0-0.4,0h-1.2
					v-2.5h1.1c0.1,0,0.2,0,0.4,0c0.1,0,0.2,0,0.4,0.1c0.1,0,0.2,0.1,0.3,0.2c0.1,0.1,0.1,0.2,0.1,0.3c0,0.1,0,0.3-0.1,0.3
					c-0.1,0.1-0.2,0.2-0.3,0.2v0c0.1,0,0.1,0,0.2,0.1c0.1,0,0.1,0.1,0.2,0.1c0.1,0,0.1,0.1,0.1,0.2C22.9,51.2,22.9,51.3,22.9,51.4z
					 M22.1,50.3c0-0.1,0-0.2-0.1-0.2c-0.1,0-0.2-0.1-0.3-0.1h-0.3v0.5h0.3c0.1,0,0.2,0,0.3-0.1C22,50.5,22.1,50.4,22.1,50.3z
					 M22.2,51.3c0-0.1,0-0.1,0-0.1c0,0-0.1-0.1-0.1-0.1c0,0-0.1,0-0.1-0.1c-0.1,0-0.1,0-0.2,0h-0.3v0.6h0.3c0.1,0,0.2,0,0.3-0.1
					C22.1,51.5,22.2,51.4,22.2,51.3z"/>
				<path class="st1" d="M24.5,52.1v-2.5h0.8v1.9h1v0.5H24.5z"/>
				<path class="st1" d="M27.6,52.1v-2.5h1.8v0.5h-1v0.5h0.9V51h-0.9v0.5h1v0.5H27.6z"/>
				<path class="st1" d="M32.6,52.1l-0.9-1.5h0l0,1.5H31v-2.5h0.9l0.9,1.5h0l0-1.5h0.7v2.5H32.6z"/>
				<path class="st1" d="M37.8,50.8c0,0.2,0,0.4-0.1,0.5c-0.1,0.2-0.2,0.3-0.3,0.4c-0.1,0.1-0.3,0.2-0.5,0.2
					c-0.2,0.1-0.4,0.1-0.7,0.1h-1v-2.5h1c0.3,0,0.5,0,0.7,0.1c0.2,0.1,0.4,0.1,0.5,0.2c0.1,0.1,0.2,0.2,0.3,0.4
					C37.8,50.5,37.8,50.7,37.8,50.8z M36.9,50.8c0-0.2-0.1-0.4-0.2-0.6c-0.1-0.1-0.3-0.2-0.5-0.2h-0.2v1.5h0.2
					c0.2,0,0.4-0.1,0.5-0.2C36.9,51.3,36.9,51.1,36.9,50.8z"/>
			</g>
		</g>
		<g>
			<g>
				<g>
					<path class="st1" d="M17.3,50.9c-0.2-0.3-0.3-0.8-0.2-1.2c0-0.1-0.1-0.3-0.2-0.2c-0.4,0.2-0.7,0.7-0.7,1.3c0,0.7,0.5,1.3,1,1.4
						c0.1,0,0.2,0,0.2-0.1C17.6,51.7,17.5,51.2,17.3,50.9z"/>
					<path class="st1" d="M17.6,50.7c0.2,0.3,0.3,0.8,0.2,1.2c0,0.1,0.1,0.3,0.2,0.2c0.4-0.2,0.7-0.7,0.7-1.3c0-0.7-0.5-1.3-1-1.4
						c-0.1,0-0.2,0-0.2,0.1C17.4,49.9,17.4,50.4,17.6,50.7z"/>
				</g>
			</g>
		</g>
		<g>
			<g>
				<g>
					<path class="st1" d="M41.4,50.9c-0.2-0.3-0.3-0.8-0.2-1.2c0-0.1-0.1-0.3-0.2-0.2c-0.4,0.2-0.7,0.7-0.7,1.3c0,0.7,0.5,1.3,1,1.4
						c0.1,0,0.2,0,0.2-0.1C41.6,51.7,41.6,51.2,41.4,50.9z"/>
					<path class="st1" d="M41.6,50.7c0.2,0.3,0.3,0.8,0.2,1.2c0,0.1,0.1,0.3,0.2,0.2c0.4-0.2,0.7-0.7,0.7-1.3c0-0.7-0.5-1.3-1-1.4
						c-0.1,0-0.2,0-0.2,0.1C41.4,49.9,41.4,50.4,41.6,50.7z"/>
				</g>
			</g>
		</g>
	</g>
	<g>
		<defs>
			<path id="SVGID_1_" d="M57.9,29.2C57.9,13.4,45,0.5,29.2,0.5C13.3,0.5,0.5,13.4,0.5,29.2c0,3,0.5,5.9,1.3,8.6h54.8
				C57.4,35.1,57.9,32.2,57.9,29.2z"/>
		</defs>
		<clipPath id="SVGID_00000083049249577339030570000006173230768260143750_">
			<use xlink:href="#SVGID_1_"  style="overflow:visible;"/>
		</clipPath>
		
			<path style="clip-path:url(#SVGID_00000083049249577339030570000006173230768260143750_);fill:none;stroke:#FFFFFF;stroke-width:0.5061;stroke-miterlimit:10;" d="
			M53.9,39.2l0.6-2.1c0.8-2.6,1.2-5.2,1.2-8c0-14.6-11.9-26.5-26.5-26.5S2.6,14.6,2.6,29.2c0,2.7,0.4,5.4,1.2,8l0.6,2.1"/>
	</g>
	<g>
		<g>
			<g>
				<g>
					<path class="st1" d="M28.8,22.8c-0.4-0.6-0.5-1.4-0.3-2.1c0-0.3-0.2-0.5-0.4-0.3c-0.7,0.4-1.3,1.3-1.3,2.3
						c0,1.3,0.8,2.4,1.9,2.6c0.1,0,0.3-0.1,0.3-0.2C29.2,24.3,29.2,23.4,28.8,22.8z"/>
					<path class="st1" d="M29.6,22.5c0.4,0.6,0.5,1.4,0.3,2.1c0,0.3,0.2,0.5,0.4,0.3c0.7-0.4,1.3-1.3,1.3-2.3c0-1.3-0.8-2.4-1.9-2.6
						c-0.1,0-0.3,0.1-0.3,0.2C29.2,21,29.2,21.9,29.6,22.5z"/>
				</g>
			</g>
		</g>
		<g>
			<g>
				<g>
					<path class="st3" d="M28.8,22.8c-0.4-0.6-0.5-1.4-0.3-2.1c0-0.3-0.2-0.5-0.4-0.3c-0.7,0.4-1.3,1.3-1.3,2.3
						c0,1.3,0.8,2.4,1.9,2.6c0.1,0,0.3-0.1,0.3-0.2C29.2,24.3,29.2,23.4,28.8,22.8z"/>
					<path class="st3" d="M29.6,22.5c0.4,0.6,0.5,1.4,0.3,2.1c0,0.3,0.2,0.5,0.4,0.3c0.7-0.4,1.3-1.3,1.3-2.3c0-1.3-0.8-2.4-1.9-2.6
						c-0.1,0-0.3,0.1-0.3,0.2C29.2,21,29.2,21.9,29.6,22.5z"/>
				</g>
			</g>
		</g>
	</g>
	<g>
		<ellipse class="st4" cx="28.6" cy="31.2" rx="11.1" ry="2.6"/>
		<g>
			<g>
				<path class="st1" d="M33.3,28.7l0-2.1l0.5,0c1.4,0,3.8-0.5,3.8-1.3c0-0.4-0.1-0.6-0.2-0.6c-0.2-0.2-0.6-0.3-1.1-0.3
					c-0.2,0-0.3,0-0.4,0l-0.5,0.1l-0.4-2l0.5-0.1c0.1,0,0.4-0.1,0.8-0.1c0.7,0,1.6,0.1,2.4,0.7c0.4,0.4,0.9,1,0.9,2.2
					c0,2.7-3.7,3.4-5.9,3.4H33.3z"/>
				<path class="st0" d="M36.4,22.8c0.6,0,1.4,0.1,2.1,0.6c0.4,0.3,0.8,0.9,0.8,1.8c0,2.9-5.2,2.9-5.4,2.9l0-1.1
					c1.1,0,4.3-0.3,4.3-1.8c0-0.5-0.1-0.8-0.4-1c-0.4-0.3-0.9-0.4-1.4-0.4c-0.2,0-0.4,0-0.5,0l-0.2-1.1C35.8,22.9,36,22.8,36.4,22.8
					 M36.4,21.9L36.4,21.9c-0.4,0-0.7,0-0.9,0.1l-0.9,0.2l0.2,0.9l0.2,1.1l0.2,0.9l0.9-0.2c0,0,0.2,0,0.3,0c0.4,0,0.7,0.1,0.7,0.1
					c0,0,0,0.1,0,0.3c-0.1,0.3-1.7,0.9-3.4,0.9l-1,0l0,1l0,1.1l0,1h1c6.2,0,6.4-3.5,6.4-3.9c0-1.1-0.4-2-1.1-2.6
					C38.2,22,37.2,21.9,36.4,21.9L36.4,21.9z"/>
			</g>
		</g>
		<path class="st4" d="M28.6,20.5c-4,0-7.2,0.7-7.2,1.7v2c0,3.2,2.2,7.8,7.2,7.8s7.2-4.6,7.2-7.8v-2C35.8,21.2,32.6,20.5,28.6,20.5z
			"/>
		<path class="st0" d="M28.9,19.2c0,0-3.6-1-1.2-3.6c1.8-2,0.8-2.7,0-3.6c0,0,3.5,1,2.4,3.7C29.6,16.9,28.1,17.2,28.9,19.2z"/>
		<path class="st5" d="M35.8,22.1c0,0.9-3.2,1.7-7.2,1.7s-7.2-0.7-7.2-1.7c0-0.9,3.2-1.7,7.2-1.7S35.8,21.2,35.8,22.1z"/>
	</g>
	<g>
		<path class="st0" d="M10.2,14.1l0.8-0.9c0.2-0.2,0.4-0.3,0.6-0.3c0.2,0,0.4,0.1,0.6,0.3c0.2,0.2,0.3,0.4,0.4,0.7
			c0,0.2-0.1,0.5-0.3,0.7L12,14.9l0.8,0.8l-0.5,0.5L10.2,14.1z M11.6,14.5l0.1-0.1c0.1-0.1,0.1-0.2,0.1-0.3c0-0.1,0-0.2-0.1-0.2
			c-0.1-0.1-0.1-0.1-0.2-0.1c-0.1,0-0.2,0-0.3,0.1L11.1,14L11.6,14.5z"/>
		<path class="st0" d="M14.2,14.3l-1.9-2.4l0.9-0.8c0.2-0.1,0.3-0.2,0.4-0.3c0.1,0,0.2,0,0.4,0c0.1,0.1,0.3,0.2,0.4,0.3
			c0.1,0.1,0.2,0.3,0.2,0.4c0,0.1,0,0.3,0,0.4c0,0.1-0.1,0.2-0.1,0.3c0.1,0,0.2,0,0.2,0c0,0,0.1,0,0.2,0.1c0.1,0,0.2,0.1,0.2,0.1
			l0.8,0.5l-0.6,0.5l-0.9-0.5c-0.1-0.1-0.2-0.1-0.2-0.1c-0.1,0-0.1,0-0.2,0.1l0,0l0.8,1L14.2,14.3z M13.6,12.3l0.2-0.2
			c0,0,0.1-0.1,0.1-0.2c0,0,0-0.1,0-0.2c0-0.1,0-0.1-0.1-0.2c-0.1-0.1-0.1-0.1-0.2-0.1c-0.1,0-0.2,0-0.3,0.1l-0.2,0.2L13.6,12.3z"/>
		<path class="st0" d="M14.7,9.8l1.6-1.1l0.3,0.6l-1,0.7l0.3,0.4l0.9-0.6l0.3,0.5l-0.9,0.6l0.3,0.5l1-0.7l0.4,0.6l-1.6,1.1L14.7,9.8
			z"/>
		<path class="st0" d="M17.3,8.1l0.8-0.4l1.1,1.6l-0.4-1.9l0.8-0.4l1.3,2.9L20.3,10l-1-2.2l0.6,2.4l-0.5,0.2l-1.4-2l1,2.2l-0.5,0.3
			L17.3,8.1z"/>
		<path class="st0" d="M20.7,6.5l0.7-0.2l1,3l-0.7,0.2L20.7,6.5z"/>
		<path class="st0" d="M23.9,5.6l0.7-0.2l0.4,1.8C25,7.4,25,7.6,25,7.8c0,0.2,0,0.3-0.1,0.5c-0.1,0.1-0.1,0.2-0.2,0.3
			c-0.1,0.1-0.3,0.2-0.5,0.2c-0.1,0-0.2,0-0.4,0.1c-0.1,0-0.2,0-0.3,0c-0.1,0-0.2-0.1-0.3-0.2C23.1,8.5,23,8.4,23,8.3
			c-0.1-0.2-0.1-0.4-0.2-0.5l-0.4-1.8l0.7-0.2l0.4,1.9c0,0.2,0.1,0.3,0.2,0.4c0.1,0.1,0.2,0.1,0.3,0.1c0.1,0,0.2-0.1,0.2-0.2
			c0-0.1,0.1-0.2,0-0.4L23.9,5.6z"/>
		<path class="st0" d="M25.7,5.2l0.9-0.1L27.1,7L27.3,5l0.9-0.1l0.3,3.1l-0.6,0.1l-0.2-2.4l-0.2,2.4l-0.5,0l-0.6-2.4l0.2,2.4L26,8.3
			L25.7,5.2z"/>
		<path class="st0" d="M32.7,7.9c0.1,0.1,0.1,0.2,0.2,0.2c0,0,0.1,0.1,0.2,0.1l-0.3,0.5c-0.1-0.1-0.2-0.2-0.3-0.3
			c-0.1-0.1-0.1-0.2-0.2-0.2c-0.2,0.1-0.4,0.1-0.6,0.1c-0.3,0-0.6-0.2-0.8-0.5c-0.2-0.3-0.3-0.7-0.2-1.3c0.1-0.5,0.2-0.9,0.4-1.2
			c0.2-0.3,0.5-0.4,0.9-0.3c0.4,0,0.7,0.2,0.8,0.5c0.2,0.3,0.2,0.7,0.2,1.2C33,7.3,32.9,7.7,32.7,7.9z M32.2,7.4
			c0.1-0.1,0.1-0.3,0.1-0.6c0-0.3,0-0.5-0.1-0.7c-0.1-0.1-0.2-0.2-0.3-0.2c-0.1,0-0.3,0-0.4,0.2c-0.1,0.1-0.2,0.3-0.2,0.6
			c0,0.3,0,0.6,0.1,0.7c0.1,0.1,0.2,0.2,0.3,0.2c0,0,0.1,0,0.1,0c-0.1-0.1-0.1-0.2-0.3-0.3L31.9,7C31.9,7,32,7,32,7.1
			C32,7.1,32.1,7.2,32.2,7.4C32.2,7.3,32.2,7.3,32.2,7.4z"/>
		<path class="st0" d="M35.8,5.9L36.4,6L36,7.9c0,0.2-0.1,0.3-0.2,0.5c-0.1,0.2-0.2,0.3-0.3,0.4c-0.1,0.1-0.2,0.2-0.3,0.2
			c-0.1,0-0.3,0-0.5,0c-0.1,0-0.2-0.1-0.3-0.1c-0.1-0.1-0.2-0.1-0.3-0.2C34,8.5,34,8.4,33.9,8.2c0-0.1-0.1-0.3-0.1-0.4
			c0-0.2,0-0.4,0.1-0.5l0.4-1.8L35,5.7l-0.4,1.9c0,0.2,0,0.3,0,0.4c0,0.1,0.1,0.2,0.2,0.2c0.1,0,0.2,0,0.3-0.1
			c0.1-0.1,0.2-0.2,0.2-0.4L35.8,5.9z"/>
		<path class="st0" d="M37.9,9.4l-0.7-0.3l-0.3,0.4l-0.7-0.3l1.9-2.6l0.7,0.3l-0.3,3.3l-0.7-0.3L37.9,9.4z M38,8.7l0.2-1.2l-0.6,1
			L38,8.7z"/>
		<path class="st0" d="M40.4,7.7L41,8l-1,2.1l1,0.5l-0.3,0.7L39,10.5L40.4,7.7z"/>
		<path class="st0" d="M42.8,9.1l0.6,0.4l-1.6,2.6l-0.6-0.4L42.8,9.1z"/>
		<path class="st0" d="M44.2,10.1l1.7,1.4l-0.5,0.6l-0.6-0.5l-1.4,1.9l-0.6-0.5l1.4-1.9l-0.6-0.5L44.2,10.1z"/>
		<path class="st0" d="M46.4,12l0.6,0.6l-0.4,1.1l1-0.4l0.5,0.6l-1.8,0.6l-0.9,0.9L45,14.9l0.9-0.9L46.4,12z"/>
	</g>
</g>
<g>
	<text transform="matrix(1 0 0 1 70.4595 39.5076)" class="st1 st6 st7">HRM CAFE</text>
</g>
</svg>
